<svg xmlns="http://www.w3.org/2000/svg" viewBox="-0.5 -0.5 47.7 47.7">
  <defs>
    <clipPath id="diamondClip">
      <rect x="6.854" y="6.854" width="33.092" height="33.092" rx="10" transform="rotate(45 23.4 23.4)"/>
    </clipPath>
  </defs>
  <rect x="6.854" y="6.854" width="33.092" height="33.092" rx="10" fill="#2f6fde" transform="rotate(45 23.4 23.4)"/>
  <g clip-path="url(#diamondClip)">
    <g transform="translate(2.052 9.093)" fill="#ffffff">
      <path d="M38.1918 3.35755L46.6736 11.8394L34.097 24.416L25.6152 15.9341L38.1918 3.35755Z"/>
      <path d="M37.2347 2.94409L39.549 5.25838L23.2833 21.5241C22.5732 22.2342 21.4219 22.2342 20.7118 21.5241L20.3261 21.1384C19.9711 20.7833 19.9711 20.2077 20.3261 19.8527L37.2347 2.94409Z"/>
      <path d="M25.2115 20.7888L27.2367 18.7635L33.7597 25.2865L31.7344 27.3117L25.2115 20.7888Z"/>
      <path d="M22.6658 23.3342L24.691 21.309L31.214 27.8319L29.1887 29.8572L22.6658 23.3342Z"/>
      <path d="M21.9601 22.7193C22.5809 22.805 23.2079 22.6136 23.6749 22.1958L24.6661 21.3089L24.2115 24.8546L21.9601 22.7193Z"/>
      <path d="M13.3277 18.8837L15.257 16.9545L28.4722 30.1696L26.5429 32.0989L13.3277 18.8837Z"/>
      <path d="M23.5744 0L27.9458 4.37145L23.5744 8.7429L19.2029 4.37145L23.5744 0Z"/>
      <g fill="none" stroke="#ffffff" stroke-width="0.9">
        <path d="M16.0018 23.9517C16.3569 23.5967 16.9325 23.5967 17.2876 23.9517L18.3161 24.9803C18.6712 25.3353 18.6712 25.911 18.3161 26.266L16.7964 27.7858L14.4821 25.4715L16.0018 23.9517Z"/>
        <path d="M18.9413 26.7104C19.2963 26.3554 19.872 26.3554 20.227 26.7104L21.1905 27.6739C21.5455 28.029 21.5455 28.6046 21.1905 28.9596L19.6707 30.4794L17.4215 28.2302L18.9413 26.7104Z"/>
        <path d="M21.623 29.4067C21.9781 29.0516 22.5537 29.0516 22.9088 29.4067L24.6263 31.1242L22.4788 33.2718L20.1184 30.9113L21.623 29.4067Z"/>
      </g>
    </g>
  </g>
  <rect x="6.854" y="6.854" width="33.092" height="33.092" rx="10" fill="none" stroke="#2f6fde" stroke-width="1.2" transform="rotate(45 23.4 23.4)"/>
</svg>
